<svg width="18" height="18" viewBox="0 0 18 18" fill="none" xmlns="http://www.w3.org/2000/svg">
<path id="Vector" d="M9 0C6.61305 0 4.32387 0.948212 2.63604 2.63604C0.948212 4.32387 0 6.61305 0 9C0 11.3869 0.948212 13.6761 2.63604 15.364C4.32387 17.0518 6.61305 18 9 18C10.8614 18 12.8163 17.4392 14.2295 16.5003C14.3053 16.4499 14.3703 16.3852 14.4211 16.3097C14.4718 16.2342 14.5071 16.1494 14.5251 16.0603C14.543 15.9711 14.5433 15.8793 14.5257 15.7901C14.5082 15.7008 14.4733 15.6159 14.4229 15.5401C14.3726 15.4644 14.3078 15.3993 14.2323 15.3486C14.1568 15.2979 14.0721 15.2625 13.9829 15.2446C13.8938 15.2266 13.8019 15.2264 13.7127 15.2439C13.6235 15.2615 13.5385 15.2964 13.4628 15.3467C12.2885 16.129 10.5759 16.6154 9 16.6154C7.49382 16.6154 6.02146 16.1688 4.76912 15.332C3.51678 14.4952 2.54069 13.3058 1.9643 11.9143C1.38791 10.5228 1.2371 8.99155 1.53094 7.51431C1.82478 6.03707 2.55008 4.68014 3.61511 3.61511C4.68014 2.55008 6.03707 1.82478 7.51431 1.53094C8.99155 1.2371 10.5228 1.38791 11.9143 1.9643C13.3058 2.54069 14.4952 3.51678 15.332 4.76912C16.1688 6.02146 16.6154 7.49382 16.6154 9C16.6154 11.2889 15.6738 11.7692 14.8846 11.7692C14.0954 11.7692 13.1538 11.2889 13.1538 9V5.53846C13.1538 5.35485 13.0809 5.17876 12.9511 5.04893C12.8212 4.91909 12.6452 4.84615 12.4615 4.84615C12.2779 4.84615 12.1018 4.91909 11.972 5.04893C11.8422 5.17876 11.7692 5.35485 11.7692 5.53846V5.90712C11.148 5.35009 10.3733 4.99309 9.54624 4.88262C8.71917 4.77215 7.87799 4.91333 7.1323 5.28777C6.38661 5.66221 5.77097 6.25255 5.3656 6.98189C4.96022 7.71122 4.78389 8.54574 4.85959 9.37672C4.93528 10.2077 5.25949 10.9966 5.78997 11.6407C6.32046 12.2848 7.03262 12.7542 7.83369 12.9877C8.63477 13.2213 9.48761 13.2081 10.2811 12.9501C11.0746 12.692 11.772 12.2009 12.2824 11.5408C12.8016 12.5792 13.6973 13.1538 14.8846 13.1538C16.8352 13.1538 18 11.6013 18 9C17.9975 6.61383 17.0485 4.3261 15.3612 2.63882C13.6739 0.95154 11.3862 0.00251984 9 0ZM9 11.7692C8.4523 11.7692 7.9169 11.6068 7.4615 11.3025C7.0061 10.9982 6.65116 10.5657 6.44156 10.0597C6.23197 9.55373 6.17713 8.99693 6.28398 8.45975C6.39083 7.92257 6.65457 7.42914 7.04186 7.04186C7.42914 6.65457 7.92257 6.39083 8.45975 6.28398C8.99693 6.17713 9.55373 6.23197 10.0597 6.44156C10.5657 6.65116 10.9982 7.0061 11.3025 7.4615C11.6068 7.9169 11.7692 8.4523 11.7692 9C11.7692 9.73445 11.4775 10.4388 10.9581 10.9581C10.4388 11.4775 9.73445 11.7692 9 11.7692Z" fill="#F5F5F5"/>
</svg>
