<svg width="18" height="18" viewBox="0 0 18 18" fill="none" xmlns="http://www.w3.org/2000/svg">
<path id="Vector" d="M16.5 1.38462H14.25V0.692308C14.25 0.508696 14.171 0.332605 14.0303 0.202772C13.8897 0.0729393 13.6989 0 13.5 0C13.3011 0 13.1103 0.0729393 12.9697 0.202772C12.829 0.332605 12.75 0.508696 12.75 0.692308V1.38462H5.25V0.692308C5.25 0.508696 5.17098 0.332605 5.03033 0.202772C4.88968 0.0729393 4.69891 0 4.5 0C4.30109 0 4.11032 0.0729393 3.96967 0.202772C3.82902 0.332605 3.75 0.508696 3.75 0.692308V1.38462H1.5C1.10218 1.38462 0.720644 1.53049 0.43934 1.79016C0.158035 2.04983 0 2.40201 0 2.76923V16.6154C0 16.9826 0.158035 17.3348 0.43934 17.5945C0.720644 17.8541 1.10218 18 1.5 18H16.5C16.8978 18 17.2794 17.8541 17.5607 17.5945C17.842 17.3348 18 16.9826 18 16.6154V2.76923C18 2.40201 17.842 2.04983 17.5607 1.79016C17.2794 1.53049 16.8978 1.38462 16.5 1.38462ZM3.75 2.76923V3.46154C3.75 3.64515 3.82902 3.82124 3.96967 3.95107C4.11032 4.08091 4.30109 4.15385 4.5 4.15385C4.69891 4.15385 4.88968 4.08091 5.03033 3.95107C5.17098 3.82124 5.25 3.64515 5.25 3.46154V2.76923H12.75V3.46154C12.75 3.64515 12.829 3.82124 12.9697 3.95107C13.1103 4.08091 13.3011 4.15385 13.5 4.15385C13.6989 4.15385 13.8897 4.08091 14.0303 3.95107C14.171 3.82124 14.25 3.64515 14.25 3.46154V2.76923H16.5V5.53846H1.5V2.76923H3.75ZM16.5 16.6154H1.5V6.92308H16.5V16.6154ZM7.5 9V14.5385C7.5 14.7221 7.42098 14.8982 7.28033 15.028C7.13968 15.1578 6.94891 15.2308 6.75 15.2308C6.55109 15.2308 6.36032 15.1578 6.21967 15.028C6.07902 14.8982 6 14.7221 6 14.5385V10.1198L5.58563 10.3119C5.4076 10.3941 5.2015 10.4076 5.01268 10.3495C4.82385 10.2914 4.66776 10.1664 4.57875 10.0021C4.48974 9.83778 4.47509 9.64754 4.53803 9.47324C4.60097 9.29894 4.73635 9.15486 4.91437 9.07269L6.41437 8.38038C6.52876 8.32755 6.65589 8.30259 6.78367 8.30789C6.91145 8.31319 7.03563 8.34857 7.14442 8.41066C7.25322 8.47276 7.343 8.5595 7.40523 8.66265C7.46747 8.7658 7.50009 8.88193 7.5 9ZM13.0463 11.6351L11.25 13.8462H12.75C12.9489 13.8462 13.1397 13.9191 13.2803 14.0489C13.421 14.1788 13.5 14.3549 13.5 14.5385C13.5 14.7221 13.421 14.8982 13.2803 15.028C13.1397 15.1578 12.9489 15.2308 12.75 15.2308H9.75C9.61072 15.2308 9.47418 15.195 9.3557 15.1274C9.23722 15.0598 9.14147 14.9631 9.07918 14.8481C9.01689 14.7331 8.99052 14.6043 9.00303 14.4763C9.01554 14.3482 9.06643 14.2259 9.15 14.1231L11.8481 10.8026C11.9095 10.7272 11.9535 10.641 11.9775 10.5493C12.0015 10.4576 12.0049 10.3624 11.9876 10.2694C11.9703 10.1764 11.9325 10.0877 11.8767 10.0087C11.8209 9.9297 11.7482 9.86205 11.6631 9.8099C11.5779 9.75776 11.4821 9.72222 11.3816 9.70548C11.281 9.68874 11.1778 9.69115 11.0783 9.71255C10.9788 9.73395 10.885 9.7739 10.8028 9.82995C10.7206 9.88599 10.6517 9.95695 10.6003 10.0385C10.5525 10.1197 10.4876 10.1913 10.4093 10.249C10.3311 10.3067 10.2411 10.3493 10.1447 10.3744C10.0483 10.3995 9.94745 10.4065 9.84807 10.395C9.74869 10.3836 9.65281 10.3538 9.56609 10.3076C9.47936 10.2613 9.40355 10.1995 9.34312 10.1258C9.28269 10.0521 9.23887 9.96793 9.21424 9.87832C9.18962 9.78871 9.18468 9.69545 9.19973 9.60405C9.21478 9.51265 9.24951 9.42496 9.30188 9.34615C9.54962 8.9504 9.93188 8.64115 10.3894 8.46632C10.8469 8.29149 11.3541 8.26086 11.8324 8.37917C12.3107 8.49748 12.7333 8.75812 13.0348 9.1207C13.3363 9.48328 13.4998 9.92754 13.5 10.3846C13.5016 10.8361 13.3421 11.2756 13.0463 11.6351Z" fill="#F5F5F5"/>
</svg>
