<svg width="18" height="18" viewBox="0 0 18 18" fill="none" xmlns="http://www.w3.org/2000/svg">
<path id="Vector" d="M4.50781 9.02458C4.51264 10.8455 4.10374 12.6424 3.31375 14.2718C3.27604 14.3563 3.22223 14.4322 3.1555 14.4948C3.08878 14.5575 3.0105 14.6057 2.92531 14.6367C2.84012 14.6676 2.74976 14.6807 2.65959 14.675C2.56942 14.6693 2.48127 14.6451 2.40038 14.6037C2.31948 14.5623 2.24749 14.5046 2.18867 14.4341C2.12986 14.3635 2.08541 14.2815 2.05797 14.1929C2.03054 14.1043 2.02067 14.011 2.02895 13.9184C2.03724 13.8259 2.06351 13.7359 2.1062 13.654C2.80274 12.2163 3.16312 10.631 3.15859 9.02458C3.15701 8.08779 3.36093 7.16272 3.75515 6.31833C4.14937 5.47394 4.72373 4.732 5.4354 4.14783C5.57507 4.03276 5.75344 3.9795 5.93127 3.99976C6.1091 4.02002 6.27182 4.11215 6.38365 4.25587C6.49547 4.39959 6.54723 4.58314 6.52754 4.76613C6.50785 4.94913 6.41833 5.11658 6.27866 5.23165C5.72501 5.68587 5.2782 6.26289 4.97157 6.91965C4.66494 7.57641 4.50641 8.29595 4.50781 9.02458ZM9.23008 8.33038C9.05116 8.33038 8.87957 8.40352 8.75306 8.53371C8.62654 8.66389 8.55547 8.84046 8.55547 9.02458C8.55533 11.7292 7.88799 14.3895 6.61597 16.7562C6.52919 16.9173 6.50816 17.1073 6.5575 17.2843C6.60684 17.4614 6.72251 17.611 6.87906 17.7003C7.03562 17.7896 7.22023 17.8113 7.39229 17.7605C7.56435 17.7097 7.70976 17.5907 7.79653 17.4296C9.17913 14.8566 9.90449 11.9647 9.90469 9.02458C9.90469 8.84046 9.83361 8.66389 9.7071 8.53371C9.58058 8.40352 9.40899 8.33038 9.23008 8.33038ZM9.23008 5.55359C8.33549 5.55359 7.47754 5.91928 6.84497 6.57022C6.2124 7.22115 5.85703 8.10401 5.85703 9.02458C5.85703 9.20869 5.9281 9.38526 6.05462 9.51545C6.18113 9.64564 6.35272 9.71878 6.53164 9.71878C6.71056 9.71878 6.88215 9.64564 7.00866 9.51545C7.13517 9.38526 7.20625 9.20869 7.20625 9.02458C7.20625 8.47224 7.41947 7.94252 7.79901 7.55196C8.17856 7.1614 8.69332 6.94198 9.23008 6.94198C9.76683 6.94198 10.2816 7.1614 10.6611 7.55196C11.0407 7.94252 11.2539 8.47224 11.2539 9.02458C11.2609 11.7848 10.6701 14.512 9.52438 17.0079C9.48656 17.0905 9.46494 17.1801 9.46074 17.2713C9.45655 17.3626 9.46987 17.4538 9.49993 17.5398C9.53 17.6258 9.57623 17.7048 9.63599 17.7724C9.69574 17.84 9.76785 17.8948 9.84819 17.9337C9.92853 17.9727 10.0155 17.9949 10.1042 17.9992C10.1929 18.0035 10.2816 17.9898 10.3651 17.9589C10.4487 17.928 10.5255 17.8804 10.5912 17.8189C10.6569 17.7574 10.7101 17.6832 10.7479 17.6005C11.9777 14.9192 12.6115 11.9895 12.6031 9.02458C12.6031 8.10401 12.2478 7.22115 11.6152 6.57022C10.9826 5.91928 10.1247 5.55359 9.23008 5.55359ZM9.23008 0C6.9049 0.00252672 4.67566 0.954139 3.03152 2.64603C1.38737 4.33792 0.462609 6.63189 0.460154 9.02458C0.461406 9.89146 0.318813 10.7522 0.0385229 11.5697C-0.021079 11.7433 -0.0112075 11.9342 0.065966 12.1004C0.143139 12.2665 0.281293 12.3943 0.450035 12.4557C0.618776 12.517 0.804284 12.5068 0.965747 12.4274C1.12721 12.348 1.2514 12.2058 1.31101 12.0322C1.64196 11.0661 1.8105 10.049 1.80937 9.02458C1.80937 6.99934 2.5912 5.05704 3.98285 3.62498C5.3745 2.19292 7.26198 1.3884 9.23008 1.3884C11.1982 1.3884 13.0857 2.19292 14.4773 3.62498C15.869 5.05704 16.6508 6.99934 16.6508 9.02458C16.6511 10.6107 16.5017 12.1931 16.2047 13.7495C16.1875 13.8389 16.1876 13.931 16.205 14.0204C16.2224 14.1098 16.2568 14.1948 16.3061 14.2706C16.3554 14.3463 16.4188 14.4113 16.4926 14.4619C16.5663 14.5124 16.649 14.5475 16.736 14.5651C16.779 14.5737 16.8228 14.5781 16.8667 14.5782C17.0228 14.578 17.174 14.5221 17.2945 14.4201C17.4151 14.318 17.4975 14.1761 17.5278 14.0185C17.8419 12.3735 18.0001 10.701 18 9.02458C17.9973 6.63196 17.0725 4.33812 15.4284 2.64628C13.7843 0.954442 11.5552 0.00275595 9.23008 0ZM6.39672 11.1219C6.22176 11.0861 6.04013 11.1231 5.89158 11.2247C5.74303 11.3263 5.63965 11.4844 5.60405 11.6643C5.33032 13.0506 4.84023 14.3822 4.1528 15.6073C4.06334 15.7668 4.03911 15.9563 4.08545 16.1342C4.13178 16.3121 4.24489 16.4637 4.39987 16.5558C4.55486 16.6478 4.73904 16.6727 4.91189 16.6251C5.08474 16.5774 5.2321 16.461 5.32156 16.3015C6.08125 14.9467 6.62234 13.4741 6.92376 11.9411C6.94148 11.8517 6.94191 11.7596 6.92501 11.67C6.90811 11.5804 6.87421 11.4951 6.82526 11.4191C6.77631 11.343 6.71327 11.2776 6.63973 11.2266C6.5662 11.1756 6.48362 11.14 6.39672 11.1219ZM9.23008 2.77679C8.97637 2.77685 8.7229 2.79308 8.47114 2.82539C8.29694 2.8523 8.13987 2.94826 8.03352 3.09276C7.92716 3.23726 7.87995 3.41884 7.90198 3.59869C7.924 3.77854 8.01352 3.94239 8.15139 4.05522C8.28926 4.16805 8.46455 4.22091 8.63979 4.2025C9.30438 4.11746 9.97895 4.17865 10.6188 4.38202C11.2587 4.58538 11.8493 4.92628 12.3516 5.38216C12.8538 5.83803 13.2562 6.39849 13.5322 7.02641C13.8082 7.65434 13.9514 8.33542 13.9523 9.02458C13.9522 9.92382 13.8981 10.8222 13.7904 11.7146C13.7786 11.8054 13.7843 11.8976 13.8073 11.9861C13.8303 12.0745 13.87 12.1575 13.9243 12.2301C13.9785 12.3026 14.0462 12.3635 14.1233 12.409C14.2005 12.4546 14.2857 12.484 14.374 12.4956C14.402 12.499 14.4301 12.5008 14.4583 12.5008C14.6224 12.5004 14.7807 12.4385 14.9036 12.3267C15.0265 12.2149 15.1057 12.0609 15.1262 11.8934C15.2399 10.9433 15.2962 9.98698 15.2948 9.02978C15.2944 7.37363 14.6556 5.78526 13.5187 4.61305C12.3818 3.44083 10.8395 2.78047 9.23008 2.77679ZM14.1151 13.9057C14.0293 13.8828 13.9399 13.8776 13.8521 13.8903C13.7644 13.9031 13.6799 13.9335 13.6035 13.9798C13.5272 14.0261 13.4604 14.0875 13.4071 14.1604C13.3538 14.2333 13.315 14.3163 13.2929 14.4046C13.1698 14.8984 13.0273 15.3938 12.8713 15.8798C12.8142 16.0539 12.8265 16.2442 12.9056 16.409C12.9846 16.5737 13.1239 16.6995 13.2929 16.7588C13.3622 16.7831 13.4348 16.7954 13.5079 16.7953C13.6493 16.7951 13.787 16.7494 13.9017 16.6643C14.0164 16.5793 14.1023 16.4594 14.1471 16.3215C14.3158 15.8078 14.4667 15.2802 14.5983 14.7552C14.6209 14.6669 14.6263 14.5748 14.6143 14.4843C14.6023 14.3938 14.5731 14.3067 14.5283 14.2278C14.4835 14.149 14.424 14.08 14.3532 14.0249C14.2825 13.9698 14.2018 13.9295 14.1159 13.9065L14.1151 13.9057Z" fill="#F5F5F5"/>
</svg>
