<svg width="18" height="18" viewBox="0 0 18 18" fill="none" xmlns="http://www.w3.org/2000/svg">
<path id="Vector" d="M16.5 6H13.5V4C13.5 2.93913 13.0259 1.92172 12.182 1.17157C11.3381 0.421427 10.1935 0 9 0C7.80653 0 6.66193 0.421427 5.81802 1.17157C4.97411 1.92172 4.5 2.93913 4.5 4V6H1.5C1.10218 6 0.720644 6.14048 0.43934 6.39052C0.158035 6.64057 0 6.97971 0 7.33333V16.6667C0 17.0203 0.158035 17.3594 0.43934 17.6095C0.720644 17.8595 1.10218 18 1.5 18H16.5C16.8978 18 17.2794 17.8595 17.5607 17.6095C17.842 17.3594 18 17.0203 18 16.6667V7.33333C18 6.97971 17.842 6.64057 17.5607 6.39052C17.2794 6.14048 16.8978 6 16.5 6ZM6 4C6 3.29276 6.31607 2.61448 6.87868 2.11438C7.44129 1.61428 8.20435 1.33333 9 1.33333C9.79565 1.33333 10.5587 1.61428 11.1213 2.11438C11.6839 2.61448 12 3.29276 12 4V6H6V4ZM16.5 16.6667H1.5V7.33333H16.5V16.6667ZM10.125 12C10.125 12.1978 10.059 12.3911 9.9354 12.5556C9.81179 12.72 9.63609 12.8482 9.43052 12.9239C9.22495 12.9996 8.99875 13.0194 8.78052 12.9808C8.56229 12.9422 8.36184 12.847 8.2045 12.7071C8.04717 12.5673 7.94002 12.3891 7.89662 12.1951C7.85321 12.0011 7.87549 11.8 7.96064 11.6173C8.04578 11.4346 8.18998 11.2784 8.37498 11.1685C8.55999 11.0586 8.7775 11 9 11C9.29837 11 9.58452 11.1054 9.79549 11.2929C10.0065 11.4804 10.125 11.7348 10.125 12Z" fill="#F5F5F5"/>
</svg>
