<svg width="18" height="18" viewBox="0 0 18 18" fill="none" xmlns="http://www.w3.org/2000/svg">
<path id="Vector" d="M17.898 16.9047C16.5812 14.5375 14.5521 12.8401 12.1841 12.0354C13.3555 11.3103 14.2655 10.2054 14.7745 8.89035C15.2835 7.57531 15.3634 6.12287 15.0018 4.75608C14.6402 3.3893 13.8571 2.18373 12.7729 1.32453C11.6886 0.465331 10.3632 0 9 0C7.63684 0 6.31136 0.465331 5.22712 1.32453C4.14289 2.18373 3.35984 3.3893 2.99824 4.75608C2.63664 6.12287 2.71647 7.57531 3.22548 8.89035C3.7345 10.2054 4.64454 11.3103 5.81586 12.0354C3.44786 12.8392 1.41876 14.5366 0.102048 16.9047C0.0537623 16.9866 0.0217345 17.0777 0.0078546 17.1727C-0.00602527 17.2676 -0.00147602 17.3645 0.0212339 17.4576C0.0439439 17.5507 0.0843545 17.6381 0.140082 17.7147C0.195809 17.7913 0.265723 17.8555 0.3457 17.9036C0.425677 17.9516 0.514097 17.9825 0.605742 17.9944C0.697387 18.0064 0.790402 17.9991 0.879298 17.973C0.968193 17.947 1.05117 17.9027 1.12333 17.8427C1.19549 17.7828 1.25538 17.7084 1.29945 17.624C2.92826 14.6966 5.80722 12.9489 9 12.9489C12.1928 12.9489 15.0717 14.6966 16.7006 17.624C16.7446 17.7084 16.8045 17.7828 16.8767 17.8427C16.9488 17.9027 17.0318 17.947 17.1207 17.973C17.2096 17.9991 17.3026 18.0064 17.3943 17.9944C17.4859 17.9825 17.5743 17.9516 17.6543 17.9036C17.7343 17.8555 17.8042 17.7913 17.8599 17.7147C17.9156 17.6381 17.9561 17.5507 17.9788 17.4576C18.0015 17.3645 18.006 17.2676 17.9921 17.1727C17.9783 17.0777 17.9462 16.9866 17.898 16.9047ZM4.15852 6.47566C4.15852 5.47989 4.44247 4.50648 4.97445 3.67852C5.50644 2.85056 6.26258 2.20525 7.14725 1.82418C8.03191 1.44312 9.00537 1.34341 9.94453 1.53768C10.8837 1.73194 11.7464 2.21146 12.4234 2.91557C13.1005 3.61969 13.5616 4.5168 13.7485 5.49344C13.9353 6.47008 13.8394 7.48239 13.4729 8.40237C13.1065 9.32234 12.486 10.1087 11.6898 10.6619C10.8936 11.2151 9.95755 11.5104 9 11.5104C7.71638 11.509 6.48573 10.9781 5.57807 10.0342C4.67042 9.09029 4.15989 7.81052 4.15852 6.47566Z" fill="#F5F5F5"/>
</svg>
